<svg width="16" height="16" viewBox="0 0 16 16" fill="none" xmlns="http://www.w3.org/2000/svg">
<g id="lucide/clipboard-check">
<path id="Vector" d="M10.6667 2.66634H12C12.3536 2.66634 12.6928 2.80682 12.9428 3.05687C13.1929 3.30691 13.3333 3.64605 13.3333 3.99967V13.333C13.3333 13.6866 13.1929 14.0258 12.9428 14.2758C12.6928 14.5259 12.3536 14.6663 12 14.6663H4C3.64638 14.6663 3.30724 14.5259 3.05719 14.2758C2.80714 14.0258 2.66667 13.6866 2.66667 13.333V3.99967C2.66667 3.64605 2.80714 3.30691 3.05719 3.05687C3.30724 2.80682 3.64638 2.66634 4 2.66634H5.33333M6 9.33301L7.33333 10.6663L10 7.99967M6 1.33301H10C10.3682 1.33301 10.6667 1.63148 10.6667 1.99967V3.33301C10.6667 3.7012 10.3682 3.99967 10 3.99967H6C5.63181 3.99967 5.33333 3.7012 5.33333 3.33301V1.99967C5.33333 1.63148 5.63181 1.33301 6 1.33301Z" stroke="#7F7F7F" stroke-linecap="round" stroke-linejoin="round"/>
</g>
</svg>
