<svg width="16" height="16" viewBox="0 0 16 16" fill="none" xmlns="http://www.w3.org/2000/svg">
<g id="intercom_symbol.svg" clip-path="url(#clip0_5_1174)">
<path id="Vector" d="M13.7125 8.79056C13.7125 8.93077 13.6572 9.06518 13.5589 9.16428C13.4605 9.26339 13.3272 9.31911 13.1881 9.31911C13.0491 9.31911 12.9157 9.26339 12.8174 9.16428C12.719 9.06518 12.6638 8.93077 12.6638 8.79056V4.06899C12.6638 3.92883 12.719 3.7944 12.8174 3.69529C12.9157 3.59617 13.0491 3.54049 13.1881 3.54049C13.3272 3.54049 13.4605 3.59617 13.5589 3.69529C13.6572 3.7944 13.7125 3.92883 13.7125 4.06899V8.79056ZM13.5305 12.0621C13.4612 12.1319 11.5112 13.7699 7.93612 13.7699C4.36116 13.7699 2.42416 12.1407 2.34183 12.0708C2.28994 12.0267 2.2472 11.9727 2.21606 11.9119C2.18492 11.8511 2.16599 11.7848 2.16035 11.7166C2.15471 11.6484 2.16249 11.5798 2.18322 11.5146C2.20395 11.4495 2.23723 11.3891 2.28116 11.337C2.37166 11.2315 2.49989 11.1663 2.63789 11.1556C2.77589 11.145 2.91246 11.1898 3.01783 11.2802C3.04816 11.3021 4.79016 12.7259 7.93185 12.7259C11.0735 12.7259 12.8285 11.2933 12.8458 11.2802C12.9523 11.1906 13.0894 11.1464 13.2277 11.157C13.3661 11.1676 13.4949 11.2321 13.5868 11.337C13.6752 11.441 13.7194 11.5759 13.7096 11.7125C13.6998 11.849 13.637 11.9763 13.5348 12.0664L13.5305 12.0621ZM2.15549 4.06899C2.16333 3.92839 2.22607 3.79662 2.33001 3.7025C2.43394 3.60837 2.57062 3.55955 2.71016 3.5667C2.83952 3.5741 2.96158 3.62953 3.0528 3.72228C3.14403 3.81503 3.19794 3.93855 3.20416 4.06899V8.78187C3.20416 8.92201 3.14892 9.05642 3.05058 9.15553C2.95225 9.2547 2.81889 9.31035 2.67983 9.31035C2.54076 9.31035 2.4074 9.2547 2.30907 9.15553C2.21074 9.05642 2.15549 8.92201 2.15549 8.78187V4.06899ZM4.78582 3.02073C4.79366 2.88011 4.8564 2.74835 4.96034 2.65423C5.06427 2.5601 5.20095 2.51128 5.34049 2.51843C5.46985 2.52584 5.59191 2.58126 5.68314 2.67401C5.77435 2.76676 5.82827 2.89027 5.83449 3.02073V10.0092C5.83449 10.1494 5.77925 10.2838 5.68091 10.3829C5.58258 10.482 5.44922 10.5377 5.31016 10.5377C5.17109 10.5377 5.03773 10.482 4.9394 10.3829C4.84107 10.2838 4.78582 10.1494 4.78582 10.0092V3.02073ZM7.42916 2.75866C7.42916 2.61849 7.4844 2.48406 7.58274 2.38495C7.68109 2.28584 7.8144 2.23015 7.9535 2.23015C8.09254 2.23015 8.22591 2.28584 8.32426 2.38495C8.4226 2.48406 8.47785 2.61849 8.47785 2.75866V10.3586C8.47785 10.4988 8.4226 10.6332 8.32426 10.7324C8.22591 10.8315 8.09254 10.8871 7.9535 10.8871C7.8144 10.8871 7.68109 10.8315 7.58274 10.7324C7.4844 10.6332 7.42916 10.4988 7.42916 10.3586V2.75866ZM10.0292 3.02073C10.0292 2.88056 10.0844 2.74613 10.1827 2.64702C10.281 2.5479 10.4144 2.49222 10.5535 2.49222C10.6925 2.49222 10.8259 2.5479 10.9243 2.64702C11.0225 2.74613 11.0778 2.88056 11.0778 3.02073V10.0092C11.0778 10.1494 11.0225 10.2838 10.9243 10.3829C10.8259 10.482 10.6925 10.5377 10.5535 10.5377C10.4144 10.5377 10.281 10.482 10.1827 10.3829C10.0844 10.2838 10.0292 10.1494 10.0292 10.0092V3.02073ZM13.8555 0.137983H2.03416C1.77658 0.136257 1.5212 0.18576 1.28263 0.283655C1.04405 0.381551 0.826977 0.525919 0.643833 0.70849C0.460689 0.891064 0.315071 1.10825 0.215318 1.34763C0.115565 1.587 0.0636341 1.84386 0.0625 2.10349V13.8966C0.0636341 14.1561 0.115565 14.413 0.215318 14.6524C0.315071 14.8917 0.460689 15.109 0.643833 15.2915C0.826977 15.4741 1.04405 15.6185 1.28263 15.7164C1.5212 15.8143 1.77658 15.8637 2.03416 15.862H13.8555C14.1127 15.8637 14.3677 15.8144 14.606 15.7168C14.8443 15.6192 15.0612 15.4752 15.2443 15.293C15.4274 15.111 15.5731 14.8943 15.6731 14.6554C15.7731 14.4166 15.8254 14.1601 15.8272 13.9009V2.10349C15.826 1.84423 15.7742 1.58773 15.6747 1.34864C15.5752 1.10955 15.43 0.89256 15.2473 0.710042C15.0647 0.527528 14.8481 0.383069 14.61 0.284915C14.3719 0.186761 14.117 0.136833 13.8598 0.137983" fill="#081D34"/>
</g>
<defs>
<clipPath id="clip0_5_1174">
<rect width="16" height="15.7241" fill="white" transform="translate(0 0.137939)"/>
</clipPath>
</defs>
</svg>
