<svg width="68" height="12" viewBox="0 0 68 12" fill="none" xmlns="http://www.w3.org/2000/svg">
<g id="SATURN">
<path id="Vector" d="M55.2822 11.5553C55.6581 11.3569 55.9245 11.2055 56.0811 11.101C56.2378 10.9966 56.3788 10.8504 56.5041 10.6624C56.6294 10.4639 56.6921 10.2185 56.6921 9.92609V2.09319C56.6921 1.80076 56.6294 1.55533 56.5041 1.3569C56.3892 1.15847 56.2482 1.00703 56.0811 0.902593C55.9245 0.787711 55.6634 0.631053 55.2978 0.432619V0.150635H57.8983L64.6503 8.64149V2.09319C64.6503 1.79032 64.5824 1.54489 64.4467 1.3569C64.3109 1.15847 64.1438 1.00703 63.9453 0.902593C63.7574 0.798155 63.4963 0.67805 63.1621 0.54228C63.0054 0.490061 62.9062 0.453507 62.8644 0.432619V0.150635H67.2665V0.432619C66.901 0.631053 66.6399 0.782489 66.4832 0.886928C66.3265 0.980923 66.1855 1.12714 66.0602 1.32557C65.9349 1.51356 65.8722 1.74855 65.8722 2.03053V11.9156H65.2299L57.9297 2.71982V9.86343C57.9297 10.1663 57.9923 10.4169 58.1177 10.6154C58.243 10.8034 58.3997 10.9548 58.5876 11.0697C58.7756 11.1741 59.0315 11.289 59.3553 11.4143L59.6999 11.5553V11.8373H55.2822V11.5553Z" fill="black"/>
<path id="Vector_2" d="M43.716 11.5458C44.0607 11.3787 44.3166 11.2429 44.4837 11.1385C44.6612 11.0236 44.8127 10.8721 44.938 10.6841C45.0633 10.4962 45.126 10.256 45.126 9.96352V2.03663C45.126 1.74421 45.0633 1.504 44.938 1.31601C44.8127 1.11757 44.6717 0.971359 44.515 0.877365C44.3583 0.772926 44.092 0.626712 43.716 0.438723V0.156738H48.2748C49.361 0.156738 50.2957 0.386503 51.079 0.846034C51.8727 1.29512 52.2696 2.02619 52.2696 3.03924C52.2696 3.71809 52.0294 4.32384 51.5489 4.85648C51.079 5.38911 50.4993 5.77554 49.81 6.01574L52.4106 9.82253C52.9119 10.5223 53.5489 11.0967 54.3218 11.5458V11.8278H52.4576C52.0189 11.8278 51.6795 11.645 51.4393 11.2795L48.3531 6.48572H46.7082V9.97919C46.7082 10.3552 46.8022 10.6424 46.9902 10.8408C47.1782 11.0288 47.4758 11.2325 47.8831 11.4518L48.0555 11.5458V11.8278H43.716V11.5458ZM46.7082 5.51444H47.9615C48.421 5.51444 48.8492 5.42567 49.2461 5.24812C49.6429 5.07058 49.9615 4.8147 50.2017 4.4805C50.4419 4.13585 50.562 3.72854 50.562 3.25856C50.562 2.54838 50.2957 2.01575 49.763 1.66065C49.2408 1.30556 48.609 1.12802 47.8675 1.12802H46.7082V5.51444Z" fill="black"/>
<path id="Vector_3" d="M36.7683 12C35.2852 12 34.1468 11.5927 33.3531 10.7781C32.5594 9.95304 32.1625 8.79899 32.1625 7.31596V2.11492C32.1625 1.80161 32.0999 1.54573 31.9745 1.3473C31.8596 1.14886 31.7082 0.992206 31.5202 0.877323C31.3427 0.762441 31.0868 0.621449 30.7526 0.454347V0.172363H35.1703V0.454347C34.6899 0.673668 34.3348 0.898211 34.1051 1.12798C33.8753 1.3473 33.7604 1.67628 33.7604 2.11492V7.04964C33.7604 9.67105 34.9092 10.9818 37.2069 10.9818C38.1782 10.9818 38.904 10.6789 39.3844 10.0731C39.8753 9.45695 40.1207 8.65278 40.1207 7.66061V2.19325C40.1207 1.83816 40.0372 1.55617 39.8701 1.3473C39.7134 1.12798 39.5202 0.966096 39.2904 0.861657C39.0711 0.746775 38.7526 0.611005 38.3348 0.454347V0.172363H42.7369V0.454347L42.4863 0.579673C42.2669 0.694556 42.0894 0.798995 41.9536 0.89299C41.8179 0.986984 41.6978 1.11231 41.5933 1.26897C41.4367 1.51962 41.3583 1.80161 41.3583 2.11492V7.31596C41.3583 8.79899 40.9615 9.95304 40.1677 10.7781C39.3844 11.5927 38.2513 12 36.7683 12Z" fill="black"/>
<path id="Vector_4" d="M22.0165 11.6903C22.4656 11.5232 22.7945 11.3926 23.0034 11.2987C23.2123 11.1942 23.3951 11.0376 23.5517 10.8287C23.7188 10.6094 23.8024 10.3274 23.8024 9.98273V1.27255H21.8598C21.5674 1.27255 21.3063 1.35088 21.0765 1.50754C20.8468 1.65375 20.664 1.86263 20.5282 2.13417L19.7136 3.87307H19.4316V0.30127H29.7554V3.87307H29.4734L28.6744 2.13417C28.5595 1.87307 28.3768 1.66419 28.1261 1.50754C27.8859 1.35088 27.6196 1.27255 27.3272 1.27255H25.3846V9.98273C25.3846 10.3274 25.4629 10.6094 25.6196 10.8287C25.7867 11.0376 25.9695 11.1942 26.1679 11.2987C26.3768 11.3926 26.7058 11.5232 27.1548 11.6903V11.9723H22.0165V11.6903Z" fill="black"/>
<path id="Vector_5" d="M8.32835 11.5457C8.66255 11.3682 8.97064 11.1175 9.25263 10.7938C9.54506 10.47 9.56518 10.4314 9.92626 9.77549L15.49 0.0783691H17.1018L17.8611 8.40718C17.9381 9.25243 18.0934 10.1224 18.6509 10.7624C18.7927 11.0862 19.1269 11.3473 19.5029 11.5457V11.8277H15.493V11.5457C15.7959 11.4308 15.8428 11.3686 15.9788 11.1875C16.1203 10.9992 16.1203 10.7581 16.1203 10.4344C16.1203 10.2046 16.1203 9.6812 16.1203 9.30461C16.1203 8.96569 16.1203 8.85272 16.1203 8.40082V7.66061H11.9628L11.7592 8.16192C11.3414 9.09142 11.1325 9.72327 11.1325 10.0575C11.1325 10.3917 11.2213 10.6893 11.3988 10.9504C11.5868 11.2115 11.8323 11.41 12.1351 11.5457V11.8277H8.32835V11.5457ZM16.1203 6.68933L15.8659 0.567925L12.4454 6.68933H16.1203Z" fill="black"/>
<path id="Vector_6" d="M3.60313 12C2.95561 12 2.4282 11.9478 2.02089 11.8433C1.62402 11.7493 1.0705 11.5718 0.360313 11.3107L0 11.1697V8.30287H0.281984L0.485639 8.72584C0.715404 9.22715 0.908616 9.61357 1.06527 9.88511C1.22193 10.1462 1.43603 10.3812 1.70757 10.5901C1.98956 10.799 2.35509 10.9608 2.80418 11.0757C3.07572 11.1384 3.34204 11.1697 3.60313 11.1697C4.27154 11.1697 4.80417 10.9974 5.20104 10.6527C5.60835 10.3081 5.81201 9.80678 5.81201 9.14882C5.81201 8.61618 5.69713 8.20887 5.46736 7.92689C5.24804 7.6449 4.97128 7.4047 4.63707 7.20626C4.30287 7.00783 3.84856 6.77284 3.27415 6.5013C2.62663 6.19843 2.10966 5.92689 1.72324 5.68668C1.33681 5.44647 1.00783 5.12794 0.736292 4.73107C0.475196 4.32376 0.344647 3.82245 0.344647 3.22715C0.344647 2.66318 0.516971 2.13577 0.861618 1.64491C1.21671 1.1436 1.67102 0.746737 2.22454 0.454309C2.77807 0.151436 3.33159 0 3.88512 0C4.46997 0 4.98694 0.0678851 5.43603 0.203655C5.89556 0.328982 6.40731 0.543081 6.97128 0.845953V3.5718H6.68929C6.39686 2.8825 6.15143 2.37076 5.953 2.03655C5.76501 1.70235 5.49347 1.42037 5.13838 1.1906C4.78329 0.960836 4.31854 0.845953 3.74412 0.845953C3.22193 0.845953 2.79373 1.0235 2.45953 1.37859C2.12533 1.72324 1.95822 2.15666 1.95822 2.67885C1.95822 3.10705 2.06788 3.47781 2.28721 3.79112C2.50653 4.09399 2.77807 4.34465 3.10183 4.54308C3.42559 4.74151 3.86423 4.9765 4.41775 5.24804C5.06527 5.56136 5.57702 5.84334 5.953 6.09399C6.33942 6.34464 6.6684 6.67885 6.93994 7.0966C7.21148 7.51436 7.34725 8.03133 7.34725 8.64752C7.34725 9.29503 7.16971 9.87467 6.81462 10.3864C6.45953 10.8982 5.99477 11.295 5.42036 11.577C4.84595 11.859 4.24021 12 3.60313 12Z" fill="black"/>
</g>
</svg>
