<svg width="16" height="16" viewBox="0 0 16 16" fill="none" xmlns="http://www.w3.org/2000/svg">
<g id="lucide/scroll-text">
<path id="Vector" d="M10 8H6.66667M10 5.33333H6.66667M12.6667 11.3333V3.33333C12.6667 2.97971 12.5262 2.64057 12.2761 2.39052C12.0261 2.14048 11.687 2 11.3333 2H2.66667M2.66667 2C3.02029 2 3.35943 2.14048 3.60948 2.39052C3.85953 2.64057 4 2.97971 4 3.33333V12.6667C4 13.0203 4.14048 13.3594 4.39052 13.6095C4.64057 13.8595 4.97971 14 5.33333 14M2.66667 2C2.31305 2 1.97391 2.14048 1.72386 2.39052C1.47381 2.64057 1.33333 2.97971 1.33333 3.33333V4.66667C1.33333 4.84348 1.40357 5.01305 1.5286 5.13807C1.65362 5.2631 1.82319 5.33333 2 5.33333H4M5.33333 14H13.3333C13.687 14 14.0261 13.8595 14.2761 13.6095C14.5262 13.3594 14.6667 13.0203 14.6667 12.6667V12C14.6667 11.8232 14.5964 11.6536 14.4714 11.5286C14.3464 11.4036 14.1768 11.3333 14 11.3333H7.33333C7.15652 11.3333 6.98695 11.4036 6.86193 11.5286C6.73691 11.6536 6.66667 11.8232 6.66667 12V12.6667C6.66667 13.0203 6.52619 13.3594 6.27614 13.6095C6.02609 13.8595 5.68696 14 5.33333 14Z" stroke="#0202D5" stroke-linecap="round" stroke-linejoin="round"/>
</g>
</svg>
