<svg width="15" height="15" viewBox="0 0 15 15" fill="none" xmlns="http://www.w3.org/2000/svg">
<path d="M13.08 1.22107V4.01169M14.4753 2.61638H11.6847M1.91749 10.9882V12.3835M2.61514 11.6859H1.21983M6.05946 9.94175C5.99718 9.70031 5.87133 9.47998 5.69502 9.30366C5.51871 9.12735 5.29837 9.00151 5.05693 8.93922L0.776821 7.83553C0.703798 7.81481 0.639529 7.77083 0.593765 7.71027C0.548001 7.6497 0.523241 7.57587 0.523241 7.49996C0.523241 7.42405 0.548001 7.35022 0.593765 7.28966C0.639529 7.2291 0.703798 7.18512 0.776821 7.16439L5.05693 6.06C5.29829 5.99778 5.51856 5.87204 5.69487 5.69585C5.87117 5.51967 5.99707 5.29948 6.05946 5.05817L7.16315 0.778059C7.18367 0.704748 7.2276 0.640161 7.28826 0.594153C7.34891 0.548145 7.42294 0.523241 7.49907 0.523241C7.5752 0.523241 7.64924 0.548145 7.70989 0.594153C7.77054 0.640161 7.81448 0.704748 7.83499 0.778059L8.93798 5.05817C9.00027 5.29961 9.12612 5.51995 9.30243 5.69626C9.47874 5.87257 9.69908 5.99841 9.94051 6.0607L14.2206 7.16369C14.2942 7.18399 14.3591 7.22788 14.4054 7.28862C14.4516 7.34937 14.4767 7.42361 14.4767 7.49996C14.4767 7.57631 14.4516 7.65055 14.4054 7.7113C14.3591 7.77204 14.2942 7.81593 14.2206 7.83623L9.94051 8.93922C9.69908 9.00151 9.47874 9.12735 9.30243 9.30366C9.12612 9.47998 9.00027 9.70031 8.93798 9.94175L7.8343 14.2219C7.81378 14.2952 7.76984 14.3598 7.70919 14.4058C7.64854 14.4518 7.5745 14.4767 7.49837 14.4767C7.42225 14.4767 7.34821 14.4518 7.28756 14.4058C7.22691 14.3598 7.18297 14.2952 7.16245 14.2219L6.05946 9.94175Z" stroke="#A2A2A2" stroke-linecap="round" stroke-linejoin="round"/>
</svg>
