<svg width="16" height="16" viewBox="0 0 16 16" fill="none" xmlns="http://www.w3.org/2000/svg">
<g id="icons">
<path id="Vector" d="M9.33335 1.33325V3.99992C9.33335 4.35354 9.47383 4.69268 9.72388 4.94273C9.97393 5.19278 10.3131 5.33325 10.6667 5.33325H13.3334M6.00002 8.66659V7.99992H10V8.66659M8.00002 7.99992V11.9999M7.33335 11.9999H8.66669M10 1.33325H4.00002C3.6464 1.33325 3.30726 1.47373 3.05721 1.72378C2.80716 1.97382 2.66669 2.31296 2.66669 2.66659V13.3333C2.66669 13.6869 2.80716 14.026 3.05721 14.2761C3.30726 14.5261 3.6464 14.6666 4.00002 14.6666H12C12.3536 14.6666 12.6928 14.5261 12.9428 14.2761C13.1929 14.026 13.3334 13.6869 13.3334 13.3333V4.66659L10 1.33325Z" stroke="#7F7F7F" stroke-linecap="round" stroke-linejoin="round"/>
</g>
</svg>
