<svg width="16" height="16" viewBox="0 0 16 16" fill="none" xmlns="http://www.w3.org/2000/svg">
<g id="lucide/users">
<path id="Vector" d="M10.6667 14V12.6667C10.6667 11.9594 10.3857 11.2811 9.88562 10.781C9.38552 10.281 8.70724 10 8 10H4C3.29276 10 2.61448 10.281 2.11438 10.781C1.61429 11.2811 1.33333 11.9594 1.33333 12.6667V14M14.6667 14V12.6667C14.6662 12.0758 14.4696 11.5018 14.1076 11.0349C13.7456 10.5679 13.2388 10.2344 12.6667 10.0867M10.6667 2.08667C11.2403 2.23353 11.7487 2.56713 12.1118 3.03487C12.4748 3.50261 12.6719 4.07789 12.6719 4.67C12.6719 5.26211 12.4748 5.83739 12.1118 6.30513C11.7487 6.77287 11.2403 7.10647 10.6667 7.25333M8.66667 4.66667C8.66667 6.13943 7.47276 7.33333 6 7.33333C4.52724 7.33333 3.33333 6.13943 3.33333 4.66667C3.33333 3.19391 4.52724 2 6 2C7.47276 2 8.66667 3.19391 8.66667 4.66667Z" stroke="#7F7F7F" stroke-linecap="round" stroke-linejoin="round"/>
</g>
</svg>
